<?xml version="1.0" encoding="UTF-8" standalone="no"?>
<!-- Created with Inkscape (http://www.inkscape.org/) -->

<svg
   version="1.1"
   id="svg1"
   width="1533.3333"
   height="613.33331"
   viewBox="0 0 1533.3333 613.33331"
   sodipodi:docname="logo-header.svg"
   inkscape:version="1.4 (e7c3feb1, 2024-10-09)"
   xmlns:inkscape="http://www.inkscape.org/namespaces/inkscape"
   xmlns:sodipodi="http://sodipodi.sourceforge.net/DTD/sodipodi-0.dtd"
   xmlns="http://www.w3.org/2000/svg"
   xmlns:svg="http://www.w3.org/2000/svg">
  <defs
     id="defs1" />
  <sodipodi:namedview
     id="namedview1"
     pagecolor="#ffffff"
     bordercolor="#000000"
     borderopacity="0.25"
     inkscape:showpageshadow="2"
     inkscape:pageopacity="0.0"
     inkscape:pagecheckerboard="0"
     inkscape:deskcolor="#d1d1d1"
     inkscape:zoom="0.64"
     inkscape:cx="814.0625"
     inkscape:cy="208.59375"
     inkscape:window-width="1728"
     inkscape:window-height="1052"
     inkscape:window-x="0"
     inkscape:window-y="65"
     inkscape:window-maximized="0"
     inkscape:current-layer="g1" />
  <g
     inkscape:groupmode="layer"
     inkscape:label="Image"
     id="g1">
    <path
       style="fill:#ffffff;fill-opacity:1"
       d="m 990.18851,492.87259 c -3.68702,-5.62709 0.001,-25.32996 9.10268,-48.6293 2.73371,-6.99811 3.03461,-8.16949 1.82451,-7.10333 -0.797,0.70219 -3.39909,3.00517 -5.78242,5.11773 -5.44993,4.83077 -14.03404,9.19152 -18.88542,9.59383 -3.05988,0.25375 -3.8027,0.0659 -5.49314,-1.38951 -1.81553,-1.56305 -1.95233,-2.00749 -1.92054,-6.23915 0.0323,-4.30107 0.5206,-5.98543 4.07477,-14.05621 0.26129,-0.59331 -0.44689,-0.83333 -2.45875,-0.83333 -2.6716,0 -3.19976,0.36024 -9.68213,6.60389 -11.67502,11.24506 -19.4286,15.6899 -27.41258,15.71464 -4.15557,0.0129 -5.00306,-0.1966 -6.50749,-1.60844 -2.10637,-1.97674 -3.25853,-5.91019 -2.66222,-9.08877 l 0.44253,-2.35892 -3.45353,3.36385 c -16.66373,16.23098 -30.9535,11.87944 -24.18923,-7.36614 1.80399,-5.13266 4.54791,-9.26011 6.1561,-9.26011 1.84429,0 1.70169,0.70341 -1.41963,7.0025 -3.40133,6.86416 -3.89715,11.97938 -1.40324,14.47663 2.15347,2.15636 6.22344,1.95317 10.82226,-0.54028 4.52404,-2.45291 13.56582,-10.96793 18.00504,-16.95611 6.68642,-9.01948 16.70887,-13.43181 18.68768,-8.22714 1.88181,4.94952 -5.92243,11.66237 -14.77774,12.71115 -3.07601,0.36431 -3.49955,0.61982 -4.33268,2.61377 -0.50786,1.21549 -0.92339,3.69785 -0.92339,5.51635 0,2.76712 0.28285,3.52884 1.7343,4.67055 2.54464,2.00162 5.61294,2.35028 9.84812,1.11908 7.63568,-2.21975 26.41758,-17.11597 26.41758,-20.95219 0,-2.36185 3.02807,-6.76764 4.65135,-6.76764 1.9291,0 2.14313,0.99103 0.62958,2.9152 -2.00096,2.5438 -1.14757,3.21134 3.44163,2.69213 3.09839,-0.35054 3.9441,-0.25196 3.9441,0.45974 0,0.49828 -1.35658,3.61203 -3.01463,6.91945 -1.65804,3.30741 -3.19555,7.41461 -3.41667,9.1271 -0.35798,2.77231 -0.2044,3.31127 1.401,4.91668 1.58781,1.58781 2.15436,1.7549 4.74589,1.39969 8.23284,-1.12843 24.2125,-13.68242 28.6617,-22.5172 4.1606,-8.26198 8.8903,-15.7334 12.3698,-19.54049 3.7441,-4.09671 6.2464,-5.70564 8.8738,-5.70564 7.0994,0 -4.7832,19.30495 -16.6811,27.10077 -0.929,0.60872 -2.4166,2.54225 -3.3056,4.29673 -1.5385,3.03599 -5.6342,12.94256 -5.6342,13.62773 0,0.47647 5.0815,-0.33137 9.6667,-1.53676 8.0618,-2.11936 16.1199,-6.44165 23.3666,-12.53357 2.8324,-2.38099 3.3667,-3.1908 3.3667,-5.10237 0,-3.84869 3.9328,-7.96422 5.8134,-6.08359 0.2396,0.23959 -0.1564,1.39356 -0.8801,2.5644 -0.7236,1.17083 -1.1113,2.3331 -0.8616,2.58283 0.2498,0.24973 2.1569,0.26141 4.238,0.026 2.3059,-0.26089 3.9467,-0.1647 4.2007,0.24623 0.2292,0.37089 -0.7552,2.67988 -2.1876,5.1311 -3.3538,5.73919 -5.2316,12.36693 -4.1663,14.70503 3.1642,6.94457 17.5301,0.15312 31.4935,-14.88843 5.9129,-6.36944 9.1326,-8.15833 11.6798,-6.48934 1.7981,1.17815 2.1352,3.52443 0.5916,4.11679 -0.5566,0.21358 -1.921,0.0118 -3.032,-0.44837 -1.8556,-0.76864 -2.1732,-0.68992 -3.9033,0.9677 -4.119,3.94617 -9.001,17.97376 -6.7414,19.37023 1.3601,0.84061 5.8278,-4.12886 11.7039,-13.0183 3.4746,-5.2564 6.1902,-8.66623 7.3071,-9.17514 3.6484,-1.6623 3.8783,0.48348 1.011,9.43469 -2.1632,6.7529 -2.518,10.5125 -1.1032,11.68676 2.8786,2.38899 8.2943,0.99495 15.5821,-4.01096 4.2812,-2.94073 14.6441,-12.96245 16.6172,-16.07012 0.9637,-1.51787 2.1078,-2.5 2.9122,-2.5 1.8091,0 1.6707,1.35262 -0.5988,5.85235 -3.6821,7.30042 -7.2805,18.97062 -5.5124,17.87793 0.31,-0.19163 2.635,-3.87129 5.1666,-8.17702 8.5107,-14.47487 16.4379,-19.97344 20.9527,-14.53344 0.5606,0.67551 1.079,3.79043 1.3579,8.15958 0.3968,6.21677 0.6309,7.21256 1.9456,8.27712 4.4763,3.62471 13.7133,-1.29479 27.1227,-14.44518 6.7606,-6.63004 10.897,-9.25128 14.0312,-8.89148 1.579,0.18127 1.8923,0.55777 2.077,2.49562 0.2937,3.08092 -1.0217,5.38452 -3.0746,5.38452 -1.6643,0 -1.7286,-0.46829 -0.4805,-3.5 0.7507,-1.82371 -1.3357,-1.45552 -4.6417,0.81912 -7.2057,4.95762 -13.0361,17.83895 -10.1016,22.31761 1.4575,2.22442 4.7661,2.74547 9.1914,1.44746 6.8396,-2.00621 11.6814,-5.54111 22.6276,-16.52011 9.4844,-9.5128 10.7415,-10.54204 14.2106,-11.63558 4.2483,-1.33917 5.6374,-0.95082 6.6385,1.85599 1.8069,5.06568 -6.8321,11.69369 -16.5319,12.68369 -1.5422,0.1574 -2.1182,0.68148 -2.7826,2.53182 -3.0957,8.6207 1.6799,13.6629 10.5044,11.09072 6.7509,-1.96776 16.8332,-9.18276 24.0686,-17.22376 6.2626,-6.95985 7.9008,-8.53362 8.8829,-8.53362 1.4853,0 1.0922,2.28945 -0.6787,3.95316 -0.8893,0.83541 -1.9355,2.9127 -2.325,4.61621 -0.5626,2.46118 -2.0582,15.11564 -2.0582,17.41519 0,0.95475 6.1088,-0.62727 9.4553,-2.44867 5.3173,-2.89399 12.8281,-9.7037 15.1188,-13.70751 1.13,-1.97509 3.6381,-5.15243 5.5736,-7.06075 7.7459,-7.63749 15.304,-8.08259 12.9379,-0.76192 -0.5982,1.85098 -1.1465,2.37263 -2.6773,2.54741 -2.0027,0.22867 -2.0834,-0.13778 -0.746,-3.38646 0.6847,-1.66305 -0.6729,-1.48254 -4.1426,0.55085 -5.9123,3.46487 -12.226,15.18672 -11.193,20.78083 0.8501,4.60376 6.3757,5.22422 14.0521,1.57787 6.9499,-3.30129 16.1709,-11.17358 19.2755,-16.45634 3.4673,-5.89976 12.1296,-9.4312 16.1782,-6.59547 2.9083,2.03708 3.3714,8.06238 1.1118,14.46679 -0.8507,2.41115 -0.828,2.50817 0.5852,2.49251 5.4989,-0.061 13.4087,-3.62124 21.5805,-9.71361 6.114,-4.55828 8.3473,-4.85964 3.5125,-0.474 -7.9181,7.18261 -15.4385,11.34302 -23.6225,13.06838 -4.0987,0.86407 -5.0769,1.38383 -8.0369,4.27003 -3.6242,3.53387 -8.1595,5.37906 -11.2901,4.59333 -3.7054,-0.92999 -5.3612,-7.03614 -3.3986,-12.53324 l 0.8826,-2.47208 -4.4119,3.89457 c -2.4265,2.14201 -6.0958,4.96245 -8.1541,6.26765 -7.0757,4.48689 -15.828,6.37583 -19.0583,4.1132 -1.9886,-1.39281 -3.1092,-5.21332 -2.606,-8.88447 l 0.4185,-3.05325 -2.1726,2.03992 c -5.0301,4.72285 -14.0633,9.51659 -17.997,9.55071 -1.4484,0.0126 -2.0254,0.49685 -2.7995,2.34965 -2.084,4.98757 -6.9848,7.43133 -10.8719,5.42121 -2.8674,-1.48278 -4.3327,-5.00823 -4.0608,-9.77004 l 0.2232,-3.90857 -2,1.34301 c -7.4371,4.99403 -16.0625,7.12241 -20.1978,4.98394 -3.1315,-1.61934 -4.3302,-4.4519 -4.0103,-9.47633 l 0.2673,-4.1978 -3.3629,2.99942 c -10.9514,9.76761 -23.7032,14.32496 -28.0157,10.01248 -2.2393,-2.23925 -2.7446,-5.81479 -1.5359,-10.86663 0.5537,-2.31432 0.8706,-4.20785 0.7041,-4.20785 -0.1665,0 -1.8985,1.36331 -3.8489,3.02958 -1.9504,1.66627 -5.8394,4.21627 -8.6422,5.66667 -8.644,4.47304 -13.1784,3.35849 -14.9493,-3.67454 -0.4079,-1.62001 -0.7417,-4.63235 -0.7417,-6.69409 0,-4.66006 -0.8291,-6.32762 -3.146,-6.32762 -2.5646,0 -7.0259,4.94093 -12.6669,14.02892 -5.1826,8.34942 -7.4188,10.88182 -9.2943,10.52542 -2.2109,-0.42014 -1.783,-8.05641 0.8799,-15.69957 0.2276,-0.65346 -1.5031,0.65269 -3.8461,2.90255 -11.5795,11.11935 -22.5308,15.69903 -26.9569,11.27298 -2.8168,-2.81684 -2.2464,-7.53801 2.279,-18.86363 0.7692,-1.925 1.1752,-3.5 0.9022,-3.5 -0.273,0 -2.7437,3.80532 -5.4903,8.45628 -2.7467,4.65096 -6.4198,9.88752 -8.1625,11.63681 -7.3541,7.38192 -12.7649,3.59086 -9.277,-6.49993 l 1.1776,-3.40683 -5.5526,4.49181 c -6.9716,5.63961 -13.0054,8.67517 -18.1757,9.144 -3.5129,0.31854 -4.0521,0.19007 -5.5691,-1.32691 -0.9238,-0.92378 -1.8892,-2.79704 -2.1454,-4.16281 -0.5402,-2.87946 0.9557,-8.96738 3.3988,-13.83242 l 1.5903,-3.16667 h -2.658 c -2.2974,0 -3.4419,0.63414 -8.4364,4.67446 -6.4505,5.21811 -16.3628,10.43111 -24.1839,12.71857 -2.75,0.8043 -5.079,1.52384 -5.1754,1.59897 -0.096,0.0751 0.3298,1.30767 0.9474,2.73897 2.3775,5.51052 0.7072,20.1546 -3.5044,30.72296 -2.2717,5.70044 -4.22276,8.82883 -6.92348,11.10134 -2.73627,2.30242 -4.97344,2.29691 -6.48891,-0.016 z m 7.6228,-5.48436 c 5.16199,-8.63846 8.68109,-24.75936 7.11449,-32.59207 -0.3989,-1.99454 -2.4514,-4.79617 -3.5137,-4.79617 -0.5728,0 -4.67159,12.26852 -6.40124,19.16032 -2.46646,9.8276 -3.26883,19.21007 -1.85658,21.70992 0.73045,1.29299 2.67043,-0.15751 4.65703,-3.482 z m 245.99909,-33.32017 c 0.8376,-1.24589 1.5229,-2.48255 1.5229,-2.74812 0,-0.26558 -1.1521,-0.6671 -2.5602,-0.89226 -1.4081,-0.22516 -3.6932,-1.17833 -5.0781,-2.11816 -1.3849,-0.93982 -2.669,-1.5578 -2.8535,-1.37328 -0.1846,0.18452 -0.1329,1.68652 0.1147,3.3378 0.3317,2.2121 0.9912,3.4575 2.5056,4.73178 2.6072,2.19385 4.4236,1.92556 6.3486,-0.93776 z m 69.0821,-6.02723 c 0.9053,-0.34421 2.2807,-1.30701 3.0563,-2.13957 l 1.4103,-1.51374 -4.1006,-0.83645 c -2.2553,-0.46004 -4.6611,-1.34373 -5.3462,-1.96376 -1.1973,-1.08351 -1.2457,-1.02071 -1.2457,1.61671 0,1.96432 0.4146,3.13026 1.459,4.10333 1.6338,1.5221 2.3876,1.63809 4.7669,0.73348 z m -66.3313,-10.55902 0.5067,-5.51818 -4.8104,4.77832 c -4.3728,4.34354 -4.7456,4.92073 -4.0974,6.34335 0.3922,0.86077 2.2416,2.32894 4.1098,3.26261 l 3.3967,1.69758 0.194,-2.52275 c 0.1067,-1.38752 0.4219,-5.00594 0.7006,-8.04093 z m 75.0427,-0.60058 c 2.0907,-6.13582 0.9461,-10.29975 -3.0939,-11.25591 -1.5348,-0.36323 -1.9257,-0.16225 -2.4703,1.27004 -0.3558,0.93586 -1.4181,2.20684 -2.3606,2.8244 -2.6477,1.73484 -4.5364,4.76342 -4.0871,6.55368 0.5142,2.04889 3.9886,3.6925 7.8453,3.71137 l 3.104,0.0152 z m -384.51611,-6.97291 c 5.35684,-1.34887 10.35541,-7.90833 6.02646,-7.90833 -2.06888,0 -7.22519,3.47881 -9.41849,6.35438 -2.01,2.63525 -1.61707,2.81526 3.39203,1.55395 z m 282.72841,-0.24886 c 2.2674,-0.67334 4.0753,-1.78592 5.4543,-3.35653 2.3033,-2.62332 2.5319,-3.49812 1.0613,-4.06243 -1.9614,-0.75265 -4.3778,0.50332 -8.4928,4.41419 -4.6109,4.38231 -4.2923,4.8666 1.9772,3.00477 z m -200.8956,-11.71201 c 3.3162,-3.6884 6.7151,-9.22714 7.434,-12.11413 1.392,-5.58984 -5.9686,2.84342 -12.0534,13.80999 l -2.5763,4.64333 2.0792,-1.48057 c 1.1436,-0.81431 3.446,-3.00069 5.1165,-4.85862 z m -521.80952,70.94142 c -0.77072,-0.77072 -0.46432,-6.38718 0.59404,-10.88889 1.63234,-6.94321 9.18946,-28.86697 13.55409,-39.32148 2.20979,-5.29304 3.92195,-9.71955 3.8048,-9.8367 -0.42625,-0.42625 -10.22848,3.37352 -16.7307,6.48554 l -6.66667,3.19072 v 4.60887 c 0,3.9842 -0.33972,5.29624 -2.50645,9.68034 -6.85616,13.87248 -30.30077,31.05527 -36.47345,26.73175 -4.65906,-3.26333 2.04342,-15.26761 14.47453,-25.9242 4.83141,-4.14173 17.3171,-13.19439 19.06015,-13.81942 1.42797,-0.51205 -2.32986,-3.74018 -5.91568,-5.08181 -1.91104,-0.71501 -8.98663,-2.21101 -15.72353,-3.32444 -6.73689,-1.11343 -14.07993,-2.64417 -16.31786,-3.40166 -9.57453,-3.24076 -12.02244,-10.6569 -6.26231,-18.97219 2.54572,-3.67499 11.28652,-12.00134 17.33127,-16.5095 18.69852,-13.94532 46.57312,-27.85187 55.80736,-27.84211 4.11915,0.004 5.52702,1.77927 5.52225,6.96201 -0.008,9.05993 -5.80602,23.25153 -8.02931,19.65418 -0.30719,-0.49704 0.18047,-2.69883 1.15956,-5.2355 2.99466,-7.75869 4.2863,-12.68502 4.07751,-15.55161 -0.17288,-2.37352 -0.48461,-2.89947 -2.04113,-3.44375 -6.06246,-2.11992 -39.49931,15.48649 -58.61452,30.86389 -6.19629,4.98466 -12.58485,11.74584 -14.08438,14.90586 -3.79345,7.99411 0.75695,11.10046 20.74599,14.16232 16.02306,2.45437 21.11947,4.11955 24.94725,8.15116 l 1.82391,1.92103 6.30627,-3.09702 c 3.46845,-1.70337 9.24769,-4.06835 12.84275,-5.25552 3.59507,-1.18717 7.01011,-2.5805 7.58898,-3.09629 1.39267,-1.2409 3.28084,-1.19659 3.28084,0.077 0,0.55814 -1.21665,3.43459 -2.70366,6.3921 -3.19855,6.3616 -7.67678,17.16897 -11.39211,27.49268 -2.55296,7.09386 -7.43181,23.79506 -7.05982,24.16706 0.0972,0.0972 1.95537,-3.77808 4.12935,-8.61166 11.09059,-24.65856 18.25196,-38.36279 23.85882,-45.65707 2.86061,-3.72152 7.27749,-6.79791 9.76001,-6.79791 2.20273,0 3.63711,3.89399 3.04381,8.2632 -0.57261,4.21679 -2.6922,11.22934 -4.42169,14.62887 l -1.30174,2.55874 1.54351,-0.47986 c 7.04236,-2.18935 19.28516,-10.27828 26.49862,-17.50788 6.94639,-6.96194 10.55806,-8.15359 12.68228,-4.18446 1.11348,2.08056 -0.8119,3.16721 -3.73743,2.10932 -2.13461,-0.77188 -2.48488,-0.71732 -3.89413,0.6066 -4.68578,4.40206 -9.47603,18.86844 -6.56416,19.8235 1.3261,0.43495 5.56308,-4.4252 10.62254,-12.18487 9.25876,-14.20009 13.41281,-14.5038 8.97707,-0.65633 -2.16463,6.75755 -2.44788,9.01773 -1.38015,11.01281 0.90228,1.68594 4.14935,2.28117 7.1699,1.31435 4.22335,-1.35182 12.88767,-7.59309 18.63634,-13.42455 5.23672,-5.31213 5.55574,-5.81329 7.56198,-11.87944 5.55598,-16.79925 16.96579,-34.78435 25.76471,-40.61251 5.56235,-3.68435 8.60664,-2.45881 8.05865,3.24419 -0.78607,8.18077 -9.77559,21.90602 -23.32886,35.61863 l -9.14282,9.2503 -0.64615,4.7497 c -1.56874,11.53152 2.51096,16.02396 11.01584,12.1303 2.89424,-1.32503 5.57561,-3.53585 10.98183,-9.05465 l 7.15263,-7.30158 2.08801,-6.51219 c 4.15885,-12.97081 12.58763,-28.27682 20.07879,-36.46153 8.5482,-9.33961 15.51798,-10.31868 14.38053,-2.02009 -1.19162,8.69385 -12.82285,25.67245 -26.16564,38.1951 l -6.24648,5.86252 -0.77584,4.99044 c -1.77606,11.42405 2.69958,16.38836 11.07903,12.28868 4.61601,-2.25841 13.6245,-11.00084 15.86827,-15.39961 2.06906,-4.05626 4.54986,-6.4704 8.47482,-8.24709 3.99996,-1.81064 6.82713,-1.75873 9.06527,0.16643 2.34882,2.02037 2.95164,7.47459 1.34672,12.18478 -1.5098,4.43103 -1.47728,4.49738 1.97285,4.02449 6.9499,-0.95259 20.73629,-8.69838 22.33001,-12.54598 0.80975,-1.95491 3.01411,-3.08803 4.03037,-2.07177 0.37023,0.37023 -0.53956,3.08909 -2.30874,6.89956 -3.78358,8.14907 -6.46595,16.62188 -5.26225,16.62188 0.29313,0 2.54327,-3.42688 5.00031,-7.61528 5.35636,-9.13075 10.69956,-15.17779 14.79229,-16.74082 5.75929,-2.19949 7.74262,0.10846 8.20645,9.54968 0.37772,7.68826 1.42187,9.47309 5.54189,9.47309 4.83726,0 15.395,-7.18843 24.26538,-16.52153 4.0424,-4.25328 10.45067,-8.14514 13.41164,-8.14514 2.13226,0 3.6078,1.72963 3.6078,4.22906 0,4.69428 -7.40498,10.1285 -14.84852,10.89674 l -3.67094,0.37888 -1.0736,3.32422 c -0.59048,1.82832 -1.0736,3.87565 -1.0736,4.54962 0,4.22366 4.14862,7.04859 9.23779,6.29031 6.53782,-0.97414 14.22067,-5.92718 25.85699,-16.6697 3.46799,-3.20162 6.47656,-5.65001 6.6857,-5.44087 1.1804,1.1804 -11.94677,14.03515 -19.73311,19.32359 -10.40158,7.0647 -20.61055,8.37364 -23.92433,3.06744 -1.38577,-2.21897 -1.65131,-7.2883 -0.56532,-10.79258 l 0.98445,-3.17663 -3.10442,2.56206 c -12.02021,9.92025 -20.89323,12.12469 -24.16863,6.00455 -0.40766,-0.76172 -0.98309,-4.20819 -1.27873,-7.65883 -0.29564,-3.45064 -0.90116,-6.71203 -1.34559,-7.24754 -2.4399,-2.93989 -6.6804,0.54777 -13.38846,11.01154 -2.47336,3.85815 -5.25944,8.13198 -6.19129,9.49741 -1.86124,2.72726 -4.80381,3.95765 -5.83779,2.44096 -0.95646,-1.40298 -0.13427,-7.68491 1.71503,-13.10369 0.942,-2.76021 1.31047,-4.62575 0.85591,-4.33333 -0.43901,0.2824 -2.4482,1.59321 -4.46487,2.9129 -4.56244,2.98564 -11.58817,5.81775 -15.80126,6.36957 -2.67073,0.34981 -3.81283,0.99869 -6.91901,3.93101 -5.53747,5.22753 -10.69877,6.29897 -13.8823,2.88185 -1.66448,-1.7866 -2.29071,-5.58633 -1.41365,-8.57747 0.37559,-1.28091 0.68289,-2.39552 0.68289,-2.47691 0,-0.0814 -2.15891,1.94766 -4.79759,4.50899 -7.72085,7.49454 -15.72089,10.50529 -20.16934,7.59055 -2.38563,-1.56313 -3.69973,-5.6011 -3.69973,-11.36855 v -5.04787 l -6.5,6.61508 c -4.79022,4.87503 -7.62403,7.17088 -10.77315,8.72803 -10.27048,5.07845 -15.98818,0.64081 -15.28179,-11.86057 l 0.26603,-4.70799 -5.02221,4.93269 c -12.06828,11.85315 -23.14033,16.6913 -27.71918,12.11245 -2.99823,-2.99823 -2.28045,-7.38761 3.53865,-21.63966 0.24612,-0.6028 0.10496,-0.76969 -0.39151,-0.46285 -0.42703,0.26391 -2.92646,4.12586 -5.5543,8.58211 -5.51925,9.35946 -9.89812,14.17997 -13.49359,14.85448 -4.79081,0.89876 -6.07625,-2.78981 -3.57314,-10.25313 0.88136,-2.62785 1.52124,-4.77792 1.42197,-4.77792 -0.0993,0 -2.13265,1.47758 -4.51862,3.28351 -5.33492,4.03799 -10.70527,7.18387 -16.39916,9.60641 -4.48971,1.91021 -4.75932,2.05123 -7.40649,3.874 -2.4415,1.68115 -4.20721,1.99887 -5.57013,1.00228 -1.81958,-1.33051 -0.85478,-2.89678 2.38165,-3.86644 2.59929,-0.77877 2.97458,-1.20027 5.03028,-5.64956 3.73203,-8.07748 5.34687,-17.19732 3.19156,-18.02439 -3.6316,-1.39357 -14.79176,17.08297 -28.65514,47.44086 -6.48156,14.19326 -7.99253,16.42364 -9.86062,14.55555 z m -35.25561,-13.15102 c 7.47203,-3.79119 17.12584,-12.38976 21.77628,-19.39594 3.09511,-4.66298 4.50986,-8.76862 4.24294,-12.31312 l -0.20805,-2.76279 -5.97874,4.08498 c -8.20453,5.60575 -16.55387,12.80297 -20.86094,17.98234 -5.2294,6.28849 -7.92486,12.01324 -6.38254,13.55555 0.92367,0.92367 4.38006,0.38685 7.41105,-1.15102 z M 680.53464,447.7349 c 0.99099,-0.51246 2.33638,-1.52244 2.98975,-2.24441 1.16425,-1.28648 1.1189,-1.32183 -2.27249,-1.77171 -1.90324,-0.25247 -4.2965,-0.89139 -5.31836,-1.41981 -2.22149,-1.14878 -2.88567,-0.4495 -2.26352,2.38312 0.43735,1.99123 2.52747,3.98456 4.17805,3.98456 0.48663,0 1.69558,-0.41928 2.68657,-0.93175 z m 7.58133,-9.56825 c 0.41232,-1.00833 0.88514,-3.63446 1.05071,-5.83585 0.25398,-3.37677 0.0947,-4.18922 -1.01857,-5.19674 -1.84042,-1.66556 -5.02262,-1.82194 -5.34491,-0.26265 -0.13695,0.66262 -1.56227,2.41528 -3.16738,3.89482 -1.6051,1.47953 -3.10459,3.27678 -3.33219,3.9939 -0.82671,2.60471 3.21098,5.16796 8.21283,5.21376 2.49395,0.0228 2.94346,-0.20285 3.59951,-1.80724 z m 91.26875,-9.52623 c 4.22055,-2.15317 6.11715,-6.6449 2.80283,-6.63794 -2.35573,0.005 -8.76286,4.71991 -10.32048,7.59479 -0.63714,1.17594 -0.48964,1.23273 2.11855,0.81567 1.54185,-0.24655 3.97144,-1.04419 5.3991,-1.77252 z M 627.66663,412.51661 c 8.27339,-9.13035 16.33334,-22.51644 16.33334,-27.12667 0,-0.67468 -0.44153,-1.59313 -0.98118,-2.041 -4.07404,-3.38115 -18.4169,17.28949 -25.64551,36.95979 l -1.46091,3.97541 3.5438,-3.30874 c 1.94909,-1.81981 5.6438,-5.62627 8.21046,-8.45879 z m 26.13113,6.65004 c 10.41084,-9.97422 19.70754,-23.2227 22.24125,-31.69539 0.73752,-2.46624 0.71326,-3.00468 -0.17537,-3.89331 -0.92381,-0.92381 -1.23449,-0.92615 -2.98204,-0.0225 -4.54536,2.35049 -11.71285,12.1965 -17.44727,23.96737 -3.49384,7.17171 -6.96169,15.81046 -6.34679,15.81046 0.19864,0 2.31824,-1.875 4.71022,-4.16667 z m -475.51881,57.55678 c -2.16632,-0.93259 -4.84756,-4.52277 -5.34064,-7.15112 -2.72353,-14.51763 9.70037,-44.47762 29.72835,-71.68934 6.12879,-8.3271 17.87248,-20.6738 23.94833,-25.17801 8.53825,-6.32968 18.55425,-9.60019 22.6643,-7.40055 3.30239,1.76738 4.35089,9.27884 2.38074,17.05551 -2.42296,9.56399 -9.98693,20.9734 -13.90451,20.9734 -2.19231,0 -2.7179,-1.71728 -0.9126,-2.98176 0.79956,-0.56003 1.70138,-1.01824 2.00405,-1.01824 2.01811,0 7.71122,-10.30834 9.44193,-17.09623 4.18727,-16.42255 -4.57614,-19.76925 -19.86865,-7.58773 -13.49426,10.74909 -29.38329,31.98516 -41.16446,55.01729 -14.3715,28.0962 -15.77677,45 -3.741,45 8.5805,0 18.66482,-8.61781 30.42448,-26 4.97586,-7.35492 14.06072,-22.26226 14.06072,-23.07223 0,-0.21393 -4.17628,-0.28519 -9.28062,-0.15836 -8.53736,0.21212 -9.40841,0.35072 -10.8763,1.73059 -1.74336,1.63883 -2.85778,1.88824 -3.53571,0.79133 -0.77658,-1.25653 1.82871,-3.29339 5.6433,-4.41203 2.88646,-0.84646 6.87085,-1.10344 17.84853,-1.15117 14.76241,-0.0642 16.79146,0.28694 14.89091,2.57695 -0.62589,0.75416 -2.14639,1.02826 -5.70399,1.02826 h -4.85061 l -4.02897,10.92625 c -4.72015,12.80068 -8.45,24.83258 -9.55195,30.81304 -0.63051,3.42195 -0.61136,4.57563 0.098,5.90106 0.7151,1.33617 0.72132,1.84081 0.0329,2.67025 -1.25094,1.50729 -2.61184,1.2472 -3.48343,-0.66574 -1.14931,-2.52245 0.74775,-12.03824 5.06965,-25.4298 1.99071,-6.16828 3.26895,-10.64847 2.84053,-9.95596 -2.80882,4.54023 -12.61249,17.82069 -15.92759,21.5762 -8.57284,9.7117 -16.69338,14.92125 -23.83961,15.29378 -2.02313,0.10546 -4.30288,-0.0771 -5.06612,-0.40564 z m 667.31104,-0.34942 c -0.56423,-1.47035 1.20106,-9.29764 4.99854,-22.16362 l 0.62659,-2.12292 -4.60758,0.38628 c -4.40596,0.36938 -4.60758,0.32279 -4.60758,-1.06466 0,-1.82686 1.03041,-2.21587 6.15364,-2.32315 l 4.10471,-0.0859 1.90122,-6 c 1.04567,-3.3 2.02085,-7.05 2.16706,-8.33334 0.14621,-1.28333 0.4705,-3.749 0.72063,-5.47926 0.57144,-3.95278 -0.29762,-7.44455 -4.02455,-16.17015 -5.97459,-13.98789 -5.38565,-19.89272 2.77138,-27.78628 4.22118,-4.08484 11.24242,-8.52919 20.41543,-12.92269 11.92933,-5.71367 16.93716,-7.17053 24.90389,-7.24495 5.90965,-0.0552 7.02228,0.11679 8.66666,1.33969 8.49551,6.31796 5.37011,22.40662 -8.33968,42.93031 -12.09613,18.10802 -26.63447,32.11284 -40.53632,39.04875 l -6.09591,3.04138 -2.03715,7.45493 c -1.12044,4.10022 -2.40269,9.55494 -2.84947,12.1216 -0.44677,2.56667 -1.09862,5.04167 -1.44856,5.5 -0.85766,1.12335 -2.42991,1.05464 -2.88295,-0.12597 z m 19.96515,-33.53197 c 10.39998,-6.89002 24.95042,-22.55405 34.03687,-36.64185 5.04687,-7.82474 9.65433,-17.96528 10.89898,-23.98751 1.09126,-5.28006 1.08546,-5.55402 -0.18192,-8.59153 -3.37588,-8.09097 -14.75515,-7.60532 -33.33651,1.42274 -13.60566,6.61054 -20.50998,11.91368 -23.37763,17.9561 -2.63971,5.56214 -2.13305,8.91075 3.07652,20.33333 1.7559,3.85 3.32035,7.75 3.47656,8.66667 0.33464,1.96368 0.007,2.65944 4.5503,-9.66667 6.52544,-17.70421 12.05396,-27.66667 15.35321,-27.66667 2.14209,0 2.03057,1.20676 -0.32964,3.56697 -2.87334,2.87334 -6.15402,9.3317 -10.87929,21.41704 -3.27133,8.36672 -12.84264,36.52535 -12.84264,37.78281 0,0.86208 4.81809,-1.45309 9.55519,-4.59143 z m -543.99794,9.44645 c -0.71294,-1.85789 0.24897,-8.49328 1.97471,-13.62184 0.92537,-2.75 1.61276,-5.07148 1.52754,-5.15885 -0.0852,-0.0874 -1.18346,0.61192 -2.44054,1.55398 -5.19421,3.89256 -15.74758,8.27154 -19.93445,8.27154 -1.19539,0 -2.6707,0.96365 -4.71234,3.07799 -9.64153,9.98493 -19.31366,5.63515 -15.40375,-6.92742 l 1.298,-4.17048 -3.9751,3.68024 c -10.53315,9.75184 -22.39686,14.88131 -28.72431,12.41943 -4.90976,-1.91029 -5.92551,-10.10026 -2.20255,-17.7591 2.67007,-5.49284 9.63635,-12.40334 13.98767,-13.87566 4.40604,-1.49084 5.49092,-1.4061 6.75812,0.52791 3.20461,4.89085 -4.43498,12.08699 -14.34607,13.51333 -3.3112,0.47653 -3.64194,0.68959 -4.42083,2.84775 -4.17237,11.56086 5.19036,15.42677 18.23236,7.52823 5.69028,-3.44617 14.45461,-10.96972 16.43695,-14.10994 4.31311,-6.83242 12.6604,-10.08059 16.78598,-6.53191 2.34882,2.02037 2.95164,7.47459 1.34672,12.18478 -1.5098,4.43103 -1.47727,4.49738 1.97285,4.02449 6.8072,-0.93303 20.03365,-8.29728 22.44345,-12.49612 1.25199,-2.18147 2.93271,-3.10585 3.89586,-2.1427 0.40159,0.40159 -0.36084,2.78898 -2.07689,6.50338 -4.42165,9.57063 -7.3065,19.27061 -5.37648,18.07779 0.33227,-0.20535 2.61303,-3.89806 5.06837,-8.20601 5.55159,-9.7404 8.72278,-14.01606 12.06257,-16.26375 3.98349,-2.6809 5.97566,-2.91878 7.94568,-0.94877 1.9591,1.95911 2.19037,5.67911 0.7222,11.61698 -2.04783,8.28226 -2.08611,8.10813 0.90062,4.09623 5.88268,-7.90189 10.90597,-12 14.70905,-12 1.91674,0 3.32072,3.62394 3.32072,8.57139 0,2.88504 0.34095,4.36861 1.26671,5.51188 3.44904,4.25938 13.47437,-0.54925 26.266,-12.59843 3.78876,-3.56886 5.24916,-4.19146 3.89455,-1.66034 -1.23316,2.30418 -10.17509,10.2554 -15.2836,13.59027 -5.87845,3.83749 -11.34163,5.67479 -14.32756,4.81844 -3.1275,-0.89696 -4.60835,-3.46382 -5.10137,-8.84256 -0.71256,-7.77398 -1.93178,-7.87527 -7.92667,-0.65852 -9.3907,11.3047 -11.43041,12.84714 -12.85481,9.72091 -0.58531,-1.28461 -0.44491,-2.96643 0.65755,-7.87654 2.11809,-9.43348 2.04312,-11.90984 -0.36056,-11.90984 -2.80706,0 -6.6976,4.82168 -15.17874,18.81149 -4.15161,6.84817 -7.74831,9.62296 -8.82761,6.81035 z m -29.02254,-4.55359 c 0.99099,-0.51246 2.33638,-1.52244 2.98975,-2.24441 1.16425,-1.28648 1.1189,-1.32183 -2.27249,-1.77171 -1.90324,-0.25247 -4.27549,-0.88052 -5.27167,-1.39566 -0.99617,-0.51515 -1.99925,-0.74859 -2.22908,-0.51877 -0.95064,0.95065 -0.31024,3.69718 1.21851,5.22594 1.87321,1.87321 3.02352,2.01886 5.56498,0.70461 z m 7.58133,-9.56825 c 0.41232,-1.00833 0.88514,-3.63446 1.05071,-5.83585 0.25398,-3.37677 0.0947,-4.18922 -1.01856,-5.19674 -1.84043,-1.66556 -5.02263,-1.82194 -5.34492,-0.26265 -0.13695,0.66262 -1.56227,2.41528 -3.16738,3.89482 -1.6051,1.47953 -3.10459,3.27678 -3.33219,3.9939 -0.8267,2.60471 3.21098,5.16796 8.21283,5.21376 2.49395,0.0228 2.94346,-0.20285 3.59951,-1.80724 z m -40.29975,-8.50719 c 2.26739,-0.67334 4.07532,-1.78592 5.45433,-3.35653 2.30331,-2.62332 2.53184,-3.49812 1.06126,-4.06243 -1.96138,-0.75265 -4.37782,0.50332 -8.49274,4.41419 -4.61097,4.38231 -4.29231,4.8666 1.97715,3.00477 z m 139.73592,17.28257 c -0.49289,-1.28444 2.63971,-4.6475 3.71183,-3.98489 0.97888,0.60499 0.93914,3.2397 -0.064,4.24285 -1.13493,1.13493 -3.1685,0.99112 -3.64782,-0.25796 z m 504.44779,-24.29679 c 0,-3.02094 3.82839,-7.59175 5.7432,-6.85697 1.56974,0.60237 1.03426,2.10092 -1.7432,4.87838 -2.63834,2.63834 -4,3.31188 -4,1.97859 z m 119.25615,-123.47573 -23.58949,-26.83049 -0.17814,19.66382 c -0.10709,11.82091 0.0996,21.00384 0.51813,23.02353 0.8065,3.89133 3.2197,6.85222 6.0454,7.41737 4.6644,0.93288 1.172,1.55625 -8.71872,1.55625 -5.86667,0 -10.66667,-0.23778 -10.66667,-0.5284 0,-0.29062 1.32376,-0.88244 2.94168,-1.31517 3.60372,-0.96385 5.4843,-3.37194 6.3987,-8.19356 0.36279,-1.913 0.65962,-12.84903 0.65962,-24.30229 v -20.8241 l -2.96059,-2.72898 c -1.62833,-1.50094 -3.80333,-2.91421 -4.83334,-3.14059 -6.10612,-1.34206 -4.50119,-1.72252 7.21175,-1.70959 9.07577,0.01 10.31297,0.14547 11.05577,1.21031 0.4599,0.65947 9.0166,10.66786 19.0147,22.24086 l 18.1784,21.04183 0.1992,-17.37516 c 0.1233,-10.7525 -0.067,-18.29314 -0.4993,-19.78357 -0.8739,-3.0131 -3.5817,-5.78218 -5.9182,-6.05229 -0.9799,-0.11328 -1.7817,-0.46162 -1.7817,-0.77408 0,-0.55899 19.6819,-0.6389 20.2386,-0.0822 0.157,0.15706 -0.2824,0.45908 -0.9765,0.67116 -3.1873,0.97377 -4.7054,2.20909 -6.0955,4.95992 -1.4842,2.93726 -1.5,3.26055 -1.5,30.82713 0,15.32231 -0.2597,27.85874 -0.5771,27.85874 -0.3175,0 -11.1925,-12.07372 -24.1667,-26.83048 z m -756.36718,25.20657 c -4.34106,-0.98872 -6.47498,-1.89558 -8.38893,-3.56508 -0.99826,-0.87076 -1.16667,-2.25944 -1.16667,-9.62035 0,-5.39188 0.24152,-8.45342 0.64709,-8.20276 0.3559,0.21996 1.89518,2.79891 3.42062,5.73099 5.16836,9.93425 11.03074,14.60193 17.28561,13.76298 5.65254,-0.75817 8.47619,-4.7031 7.67723,-10.72589 -0.88618,-6.68038 -3.63262,-10.22134 -12.73189,-16.41512 -8.86069,-6.03139 -11.2538,-8.12476 -13.32145,-11.65294 -4.8299,-8.2416 -1.5984,-17.06397 7.84826,-21.42668 3.81154,-1.76027 4.81218,-1.92674 11.50786,-1.91451 6.93454,0.0127 11.42314,0.84005 13.5,2.48845 1.01156,0.80287 1.20038,16.49815 0.19848,16.49815 -0.34917,0 -1.8673,-2.52264 -3.37361,-5.60587 -3.61375,-7.39685 -6.22635,-10.05267 -10.92311,-11.10376 -3.38093,-0.75661 -3.85964,-0.70202 -6.85166,0.78143 -2.6522,1.31496 -3.38789,2.08989 -4.19179,4.41539 -0.81114,2.34642 -0.835,3.34408 -0.14197,5.93525 1.23981,4.63553 3.92318,7.5014 12.60792,13.46543 12.94486,8.88957 15.64848,12.34052 15.74485,20.09704 0.0404,3.25412 -0.31096,5.04102 -1.39633,7.10057 -1.92218,3.64743 -6.83181,7.88545 -10.70976,9.24471 -4.33904,1.52088 -12.25529,1.84806 -17.24075,0.71257 z m 157.77772,0.0831 c -7.56557,-2.18802 -11.7833,-5.50233 -14.80324,-11.63245 l -2.19675,-4.45916 -0.3476,-21.35044 c -0.19117,-11.74274 -0.59926,-21.87803 -0.90686,-22.52286 -0.52018,-1.09046 -1.44733,-1.47954 -4.6903,-1.96829 -0.70295,-0.10594 -1.37812,-0.49263 -1.50039,-0.85929 -0.26607,-0.79796 24.59932,-0.65268 25.11181,0.14672 0.18333,0.28597 -0.78715,0.61279 -2.15663,0.72626 -4.45783,0.36936 -4.51004,0.62945 -4.51004,22.46862 0,21.48318 0.44619,24.82644 4.00331,29.99653 1.35675,1.97198 3.16425,3.46836 5.67069,4.69465 3.31696,1.62284 4.21963,1.77059 9.16924,1.50087 6.13569,-0.33436 8.58636,-1.32597 12.02345,-4.86503 4.04066,-4.16053 4.46665,-6.80867 4.46665,-27.76659 0,-19.69057 -0.24069,-21.49886 -3.21402,-24.14731 -0.76892,-0.68491 -2.3252,-1.43491 -3.45838,-1.66667 -4.57362,-0.9354 -1.4506,-1.49546 8.33906,-1.49546 9.46131,0 13.07023,0.56674 8.9622,1.40741 -2.31368,0.47347 -3.56751,1.38063 -5.02392,3.63485 -1.15254,1.7839 -1.30807,3.81264 -1.66095,21.66667 -0.44762,22.64758 -0.68382,23.81609 -5.98707,29.61869 -4.69792,5.14028 -9.68949,7.23115 -17.95015,7.51898 -3.88775,0.13547 -7.50051,-0.11468 -9.34011,-0.6467 z m 222.66666,-0.18682 c -16.745,-4.44463 -26.85606,-21.13573 -23.26553,-38.40619 1.79779,-8.64737 8.64741,-17.50351 16.68981,-21.5789 10.67999,-5.41196 25.11365,-5.60886 33.90905,-0.46258 14.97174,8.76011 20.19845,27.30816 12.16537,43.17125 -2.12412,4.19452 -9.42578,11.45006 -13.94902,13.8609 -7.53594,4.01657 -18.01004,5.41677 -25.54968,3.41552 z m 19.84596,-4.04605 c 3.83591,-2.37156 6.90931,-6.3126 8.86797,-11.37142 2.02853,-5.23928 2.56951,-18.43225 1.02601,-25.02155 -3.59927,-15.36557 -14.98464,-23.8065 -27.28696,-20.23012 -9.06674,2.63578 -13.76893,11.31151 -13.76488,25.3968 0.003,9.96578 2.85739,19.66356 7.62961,25.92026 5.67693,7.44284 16.22461,9.82152 23.52825,5.30603 z m 267.20403,4.40054 c -19.49387,-3.26355 -31.53962,-18.33602 -29.00537,-36.2935 1.8971,-13.44263 12.89062,-24.22173 27.95536,-27.41011 6.39109,-1.35264 18.54223,-0.90882 24.33334,0.88878 l 4,1.24163 0.40214,3.30652 c 1.04441,8.58723 1.2987,12.97318 0.75218,12.97318 -0.32619,0 -1.31936,-1.56242 -2.20703,-3.47206 -4.2713,-9.18872 -10.39119,-13.48173 -19.26041,-13.51086 -8.43629,-0.0277 -15.2508,4.05297 -19.22736,11.51375 -2.98694,5.60408 -4.12619,10.70345 -4.12619,18.46917 0,18.79217 9.37456,30.40741 24.54153,30.40741 4.01616,0 5.64926,-0.33712 8.58059,-1.77129 3.8788,-1.89772 7.95396,-6.37839 10.43144,-11.46945 2.51494,-5.16804 2.93244,-3.71325 1.69762,5.91533 l -0.74882,5.83897 -2.59331,1.03764 c -6.25411,2.5024 -18.06946,3.58317 -25.52571,2.33489 z m 220.61661,-0.34625 c -7.0647,-1.56941 -14.011,-5.18491 -18.4068,-9.58072 -15.3421,-15.34208 -10.8641,-40.26713 8.993,-50.05624 7.547,-3.72051 13.5298,-4.8665 23.0805,-4.421 7.4065,0.34548 14.5433,1.85993 15.4287,3.27398 0.2358,0.37658 0.6241,3.2689 0.8629,6.42738 0.2388,3.15848 0.5948,6.56769 0.791,7.57602 0.6282,3.22891 -0.9432,1.98271 -3.0401,-2.41087 -4.1142,-8.62052 -10.0479,-12.65429 -18.7092,-12.71864 -7.3689,-0.0548 -12.6888,2.49998 -17.2671,8.29195 -8.6156,10.89956 -8.6956,31.72711 -0.1653,43.05811 2.8378,3.7695 7.7047,7.27566 11.5285,8.30532 3.6125,0.97275 9.8059,0.92343 13.2399,-0.10544 3.764,-1.1277 9.0755,-6.07263 11.9974,-11.16925 1.2833,-2.23854 2.5924,-4.07332 2.909,-4.07729 0.3166,-0.004 0.3998,1.26778 0.1849,2.82611 -0.215,1.55833 -0.5872,4.70329 -0.8272,6.98878 -0.24,2.2855 -0.8439,4.49367 -1.342,4.90705 -3.5597,2.95427 -21.1416,4.68779 -29.2581,2.88475 z m 80.0894,-0.005 c -14.4313,-3.49307 -23.756,-15.92013 -23.756,-31.6598 0,-10.00967 3.9977,-18.82319 11.0644,-24.39291 8.8063,-6.94078 22.2066,-9.9027 32.5789,-7.20104 19.2194,5.00602 28.8573,26.6912 19.9482,44.8834 -6.9385,14.16848 -24.2372,22.14587 -39.8355,18.37035 z m 19.5325,-3.98234 c 7.8388,-4.26638 12.1035,-15.34941 11.1439,-28.96002 -0.9049,-12.83422 -6.0216,-22.41059 -14.0809,-26.3536 -10.4221,-5.09909 -21.7462,-1.02035 -25.5744,9.21145 -2.8892,7.72208 -3.1868,19.45055 -0.728,28.69074 1.317,4.94914 5.3159,11.68967 8.786,14.80964 5.8972,5.30207 13.6745,6.29138 20.4534,2.60179 z m -756.12183,3.91446 c -7.98303,-0.14309 -13.16666,-0.49291 -13.16666,-0.88857 0,-0.35892 0.98325,-0.65257 2.18499,-0.65257 1.20175,0 2.85175,-0.46702 3.66667,-1.03781 l 1.48167,-1.0378 v -27.91458 c 0,-30.54629 0.071,-29.99743 -3.88095,-30.02002 -0.98214,-0.006 -2.23572,-0.30102 -2.78572,-0.65646 -0.55,-0.35544 -0.7,-0.6412 -0.33333,-0.63503 0.36667,0.006 7.70612,-0.13772 16.3099,-0.31976 17.79996,-0.37662 22.67037,0.24657 30.00991,3.83988 4.9055,2.40165 11.154,8.14792 13.17558,12.11657 4.69569,9.21829 4.64937,20.83678 -0.12061,30.24987 -2.42659,4.78866 -7.72818,10.21806 -12.41862,12.71805 -7.77286,4.14288 -11.76663,4.63893 -34.12283,4.23823 z m 25.22668,-4.38918 c 8.15743,-4.16604 12.28286,-12.95461 12.26347,-26.12536 -0.0167,-11.36108 -3.05739,-20.15347 -8.80037,-25.44716 -4.21998,-3.88985 -7.89361,-5.11282 -14.46213,-4.81453 -4.49887,0.20431 -5.61053,0.48838 -6.88009,1.75813 l -1.51422,1.51446 v 25.59441 25.59442 l 1.58285,1.68465 c 1.96579,2.09224 3.14399,2.36067 9.41715,2.14549 3.83553,-0.13157 5.79028,-0.57511 8.39334,-1.90451 z m -188.39333,3.6014 c 0,-0.31898 1.38092,-0.73561 3.06871,-0.92585 5.55047,-0.62562 5.26462,0.99808 5.26462,-29.90473 0,-26.58488 -0.0379,-27.39178 -1.33333,-28.36514 -1.72181,-1.29377 -6.60692,-0.79205 -10.21611,1.04922 -3.46097,1.76566 -6.98051,5.94987 -8.82283,10.48908 -0.81485,2.00764 -1.7092,3.40736 -1.98746,3.11049 -0.27826,-0.29687 -0.25503,-3.08977 0.0516,-6.20643 0.30665,-3.11667 0.57642,-7.54167 0.5995,-9.83334 0.0231,-2.29166 0.24332,-4.16666 0.48945,-4.16666 0.24613,0 1.02601,0.52353 1.73306,1.16341 1.13604,1.0281 3.26459,1.19187 18.30162,1.40811 22.19263,0.31915 31.92776,-0.25646 33.39902,-1.97477 0.59498,-0.69488 1.31686,-1.26342 1.60417,-1.26342 0.4864,0 0.32347,4.74267 -0.56698,16.50396 -0.37799,4.99254 -1.12418,5.80121 -1.84861,2.0034 -0.74307,-3.89552 -4.17309,-8.98301 -7.28658,-10.80764 -3.88646,-2.27762 -8.53716,-2.89936 -10.76561,-1.43922 l -1.68427,1.10357 v 27.19055 c 0,21.59421 0.18279,27.44051 0.88809,28.40507 0.58765,0.80366 2.05357,1.32651 4.33333,1.54557 1.89489,0.18207 3.44525,0.59288 3.44525,0.91289 0,0.32002 -6.45,0.58185 -14.33333,0.58185 -7.88333,0 -14.33333,-0.26099 -14.33333,-0.57997 z m 237.33332,-0.0867 c 0,-0.36666 1.01676,-0.66666 2.25947,-0.66666 1.24272,0 2.96772,-0.57323 3.83334,-1.27383 l 1.57385,-1.27383 0.22355,-23.5595 c 0.21927,-23.10942 -0.061,-30.67843 -1.20438,-32.52849 -0.31487,-0.50948 -1.873,-1.09988 -3.4625,-1.312 -6.24743,-0.83375 -1.95989,-1.4477 10.11,-1.4477 6.96667,0 12.74166,0.23895 12.83333,0.53101 0.0917,0.29205 -0.88333,0.62946 -2.16667,0.74979 -4.87932,0.45751 -4.66666,-0.91781 -4.66666,30.18007 v 27.85887 l 1.48167,1.0378 c 0.81492,0.57079 2.46492,1.03781 3.66667,1.03781 1.20174,0 2.18499,0.3 2.18499,0.66666 0,0.42222 -4.88889,0.66667 -13.33333,0.66667 -8.44445,0 -13.33333,-0.24445 -13.33333,-0.66667 z m 194.66665,0.0848 c 0,-0.32001 1.55036,-0.73082 3.44525,-0.91289 2.27976,-0.21906 3.74568,-0.74191 4.33333,-1.54557 0.70528,-0.96452 0.88809,-6.80711 0.88809,-28.38264 v -27.16811 l -1.48167,-1.0378 c -1.88389,-1.31953 -4.13889,-1.31332 -8.0584,0.0222 -3.88994,1.32544 -8.39875,6.15818 -10.5198,11.27558 -1.93077,4.65833 -2.9108,4.72566 -2.3932,0.16442 0.21845,-1.925 0.60264,-6.575 0.85376,-10.33333 0.25112,-3.75833 0.58512,-6.83333 0.74223,-6.83333 0.15711,0 0.70962,0.42397 1.22781,0.94216 1.4923,1.4923 9.52204,1.91309 30.663,1.60688 19.27905,-0.27924 19.62432,-0.30853 21.21183,-1.79992 0.88758,-0.83383 1.74015,-1.2685 1.8946,-0.96593 0.15445,0.30258 0.0662,3.55014 -0.19619,7.21681 -0.26236,3.66666 -0.50709,8.30166 -0.54383,10.3 -0.0781,4.24794 -0.74796,3.88717 -2.41374,-1.3 -2.59489,-8.08037 -12.4184,-13.85814 -17.50473,-10.29553 l -1.48167,1.0378 v 27.54723 c 0,30.86047 -0.32407,28.94566 5.00036,29.5458 1.6498,0.18595 2.99964,0.59908 2.99964,0.91806 0,0.31898 -6.45,0.57997 -14.33333,0.57997 -7.88334,0 -14.33334,-0.26183 -14.33334,-0.58185 z m 66,-0.0848 c 0,-0.36666 0.675,-0.67076 1.5,-0.67577 3.25162,-0.0197 4.4854,-0.78691 5.20143,-3.23433 1.03647,-3.54276 0.57731,-54.41265 -0.50087,-55.48997 -0.43969,-0.43934 -1.91505,-0.98013 -3.27858,-1.20177 -1.36353,-0.22164 -2.60378,-0.77689 -2.75612,-1.2339 -0.21724,-0.65173 4.25201,-0.83092 20.72406,-0.83092 11.55056,0 21.47556,0.18209 22.05555,0.40466 0.86799,0.33308 1.05453,1.63028 1.05453,7.33333 0,3.81077 -0.225,6.92796 -0.5,6.92709 -0.275,-8.7e-4 -1.32568,-1.57587 -2.33485,-3.5 -2.91849,-5.56455 -7.24252,-7.78186 -15.24191,-7.81584 -2.79464,-0.0119 -4.18864,0.33429 -5.5,1.36581 l -1.75658,1.38172 v 11.61828 11.61828 h 4.63386 c 6.68205,0 11.28237,-1.14699 13.50175,-3.36638 1.02542,-1.02541 1.86439,-2.48747 1.86439,-3.249 0,-0.76154 0.3,-1.38462 0.66667,-1.38462 0.41493,0 0.66667,3.79089 0.66667,10.03934 0,9.33849 -0.6,12.12732 -1.56792,7.28775 -0.89345,-4.46726 -5.7429,-6.66042 -14.7273,-6.66042 h -5.03812 v 12.95238 c 0,14.21529 0.0804,14.52007 4.06235,15.39464 2.32718,0.51114 8.31352,-0.066 12.10937,-1.16752 3.45943,-1.00386 7.5632,-4.70072 9.53284,-8.5876 2.06005,-4.06533 3.16576,-4.24 2.69173,-0.42524 -0.19364,1.55834 -0.53761,5.15834 -0.76439,8 l -0.41232,5.16667 h -22.94312 c -14.85097,0 -22.94312,-0.23514 -22.94312,-0.66667 z m 243.33331,0 c 0,-0.36666 1.0168,-0.66666 2.2595,-0.66666 1.2427,0 2.9677,-0.57323 3.8333,-1.27383 l 1.5739,-1.27383 0.2235,-23.5595 c 0.2193,-23.10942 -0.061,-30.67843 -1.2044,-32.52849 -0.3148,-0.50948 -1.873,-1.09988 -3.4625,-1.312 -6.2474,-0.83375 -1.9598,-1.4477 10.11,-1.4477 6.9667,0 12.7417,0.23895 12.8334,0.53101 0.092,0.29205 -0.8834,0.62946 -2.1667,0.74979 -4.8793,0.45751 -4.6667,-0.91781 -4.6667,30.18007 v 27.85887 l 1.4817,1.0378 c 0.8149,0.57079 2.4649,1.03781 3.6667,1.03781 1.2017,0 2.185,0.3 2.185,0.66666 0,0.42222 -4.8889,0.66667 -13.3334,0.66667 -8.4444,0 -13.3333,-0.24445 -13.3333,-0.66667 z M 582.40233,190.30712 c -0.64128,-0.64128 -1.05253,-1.89064 -0.93855,-2.85129 0.17143,-1.44498 3.81766,-4.06419 23.53619,-16.90682 12.83333,-8.35831 24.60833,-16.09497 26.16666,-17.19257 l 2.83334,-1.99563 v -22.26545 c 0,-19.88341 0.11776,-22.36332 1.10075,-23.1804 0.8414,-0.69938 4.54715,-0.96285 15.72789,-1.11819 12.43577,-0.17278 14.86765,-0.0456 16.23258,0.8487 1.58863,1.04091 1.60544,1.16698 1.60544,12.03656 0,6.04155 0.13475,10.98463 0.29945,10.98463 0.1647,0 14.95746,-9.55881 32.87281,-21.24181 34.77434,-22.677112 34.90389,-22.758186 36.36464,-22.758186 0.52684,0 8.35662,4.823646 17.39949,10.719213 l 16.4416,10.719213 5.14434,-3.29197 c 2.82938,-1.81058 9.63858,-6.20596 15.13156,-9.76751 6.56463,-4.256389 10.45954,-6.385256 11.36545,-6.212081 1.25358,0.239637 143.7603,93.980411 146.48065,96.354811 2.75648,2.40595 0.45045,6.82388 -3.0621,5.86641 -0.79085,-0.21557 -33.53338,-21.63053 -72.76119,-47.5888 l -71.32329,-47.196843 -12.20155,7.973943 c -6.71085,4.38566 -11.96537,8.18073 -11.6767,8.43348 0.28866,0.25275 25.57483,16.76125 56.1915,36.68556 30.61666,19.92431 56.32192,36.69369 57.12279,37.26529 3.26907,2.33323 1.96443,7.14344 -1.77445,6.54245 -0.92492,-0.14868 -35.33412,-22.22347 -76.46488,-49.0551 -41.13076,-26.83163 -75.25003,-48.963913 -75.82059,-49.182857 -0.67063,-0.257346 -27.70318,16.986597 -76.46433,48.776257 -41.48482,27.04589 -76.0932,49.30171 -76.90751,49.45738 -0.83639,0.15988 -1.97719,-0.21359 -2.62199,-0.85839 z M 661.84981,122.79411 662.03299,112 h -10.68318 -10.68318 v 17.6496 17.64961 l 10.5,-6.85549 10.5,-6.8555 z"
       id="path1" />
  </g>
</svg>
